<svg width="106" height="60" viewBox="0 0 106 60" fill="none" xmlns="http://www.w3.org/2000/svg">
<path d="M24.1462 21.1035H24.1433C21.7453 21.1035 19.8013 22.8311 19.8013 24.9622V24.9647C19.8013 27.0958 21.7453 28.8234 24.1433 28.8234H24.1462C26.5442 28.8234 28.4882 27.0958 28.4882 24.9647V24.9622C28.4882 22.8311 26.5442 21.1035 24.1462 21.1035Z" fill="#2196F3"/>
<path d="M56.195 19.8695C56.1882 16.9095 54.8623 14.0725 52.5074 11.9792C50.1525 9.88592 46.9604 8.70692 43.6297 8.7002V8.7002C40.298 8.70557 37.1045 9.88398 34.7484 11.9774C32.3922 14.0708 31.0655 16.9087 31.0587 19.8695V36.1924C31.0587 36.1924 56.1922 33.7047 56.195 19.8721V19.8695Z" fill="#2196F3"/>
<path d="M11 41.5495C11.006 43.6091 11.9291 45.5828 13.5676 47.0394C15.2061 48.496 17.4267 49.317 19.7442 49.3231C22.0612 49.317 24.2814 48.4963 25.9197 47.0403C27.5581 45.5843 28.4816 43.6112 28.4884 41.552V30.1943C28.4884 30.1943 11 31.9266 11 41.5495ZM19.7442 43.5844C19.2913 43.5844 18.8486 43.4651 18.472 43.2415C18.0955 43.0179 17.802 42.7001 17.6287 42.3282C17.4554 41.9564 17.41 41.5472 17.4984 41.1525C17.5867 40.7577 17.8048 40.3951 18.125 40.1105C18.4453 39.8259 18.8533 39.6321 19.2975 39.5536C19.7416 39.4751 20.202 39.5154 20.6205 39.6694C21.0389 39.8234 21.3965 40.0843 21.6481 40.4189C21.8997 40.7535 22.034 41.147 22.034 41.5495C22.0351 41.8173 21.9767 42.0828 21.8622 42.3306C21.7476 42.5783 21.5791 42.8036 21.3664 42.9933C21.1536 43.1831 20.9008 43.3337 20.6224 43.4364C20.3441 43.5392 20.0456 43.5921 19.7442 43.5921V43.5844Z" fill="#2196F3"/>
<path d="M37.4177 42.4639H35.7302V44.207H34.8513V39.9414H37.6287V40.6533H35.7302V41.7549H37.4177V42.4639ZM41.6423 42.1709C41.6423 42.5908 41.5681 42.959 41.4197 43.2754C41.2712 43.5918 41.0583 43.8359 40.781 44.0078C40.5056 44.1797 40.1892 44.2656 39.8318 44.2656C39.4783 44.2656 39.1628 44.1807 38.8855 44.0107C38.6082 43.8408 38.3933 43.5986 38.241 43.2842C38.0886 42.9678 38.0115 42.6045 38.0095 42.1943V41.9834C38.0095 41.5635 38.0847 41.1943 38.2351 40.876C38.3875 40.5557 38.6013 40.3105 38.8767 40.1406C39.1541 39.9688 39.4705 39.8828 39.8259 39.8828C40.1814 39.8828 40.4968 39.9688 40.7722 40.1406C41.0496 40.3105 41.2634 40.5557 41.4138 40.876C41.5662 41.1943 41.6423 41.5625 41.6423 41.9805V42.1709ZM40.7517 41.9775C40.7517 41.5303 40.6716 41.1904 40.5115 40.958C40.3513 40.7256 40.1228 40.6094 39.8259 40.6094C39.531 40.6094 39.3035 40.7246 39.1433 40.9551C38.9832 41.1836 38.9021 41.5195 38.9001 41.9629V42.1709C38.9001 42.6064 38.9802 42.9443 39.1404 43.1846C39.3005 43.4248 39.531 43.5449 39.8318 43.5449C40.1267 43.5449 40.3533 43.4297 40.5115 43.1992C40.6697 42.9668 40.7498 42.6289 40.7517 42.1855V41.9775ZM44.4929 43.0879C44.4929 42.9219 44.4343 42.7949 44.3171 42.707C44.2 42.6172 43.989 42.5234 43.6843 42.4258C43.3796 42.3262 43.1384 42.2285 42.9607 42.1328C42.4763 41.8711 42.2341 41.5186 42.2341 41.0752C42.2341 40.8447 42.2986 40.6396 42.4275 40.46C42.5583 40.2783 42.7449 40.1367 42.9871 40.0352C43.2312 39.9336 43.5046 39.8828 43.8074 39.8828C44.1121 39.8828 44.3835 39.9385 44.6218 40.0498C44.8601 40.1592 45.0447 40.3145 45.1755 40.5156C45.3083 40.7168 45.3748 40.9453 45.3748 41.2012H44.4958C44.4958 41.0059 44.4343 40.8545 44.3113 40.7471C44.1882 40.6377 44.0154 40.583 43.7927 40.583C43.5779 40.583 43.4109 40.6289 43.2917 40.7207C43.1726 40.8105 43.113 40.9297 43.113 41.0781C43.113 41.2168 43.1824 41.333 43.321 41.4268C43.4617 41.5205 43.6677 41.6084 43.9392 41.6904C44.4392 41.8408 44.8035 42.0273 45.032 42.25C45.2605 42.4727 45.3748 42.75 45.3748 43.082C45.3748 43.4512 45.2351 43.7412 44.9558 43.9521C44.6765 44.1611 44.3005 44.2656 43.8279 44.2656C43.4998 44.2656 43.2009 44.2061 42.9314 44.0869C42.6619 43.9658 42.4558 43.8008 42.3132 43.5918C42.1726 43.3828 42.1023 43.1406 42.1023 42.8652H42.9841C42.9841 43.3359 43.2654 43.5713 43.8279 43.5713C44.0369 43.5713 44.2 43.5293 44.3171 43.4453C44.4343 43.3594 44.4929 43.2402 44.4929 43.0879ZM49.1833 40.6533H47.8767V44.207H46.9978V40.6533H45.7087V39.9414H49.1833V40.6533ZM52.2537 42.3584H50.5662V43.501H52.5466V44.207H49.6873V39.9414H52.5408V40.6533H50.5662V41.6699H52.2537V42.3584ZM54.6414 42.6455H53.9412V44.207H53.0623V39.9414H54.6472C55.1511 39.9414 55.5398 40.0537 55.8132 40.2783C56.0867 40.5029 56.2234 40.8203 56.2234 41.2305C56.2234 41.5215 56.1599 41.7646 56.033 41.96C55.908 42.1533 55.7175 42.3076 55.4617 42.4229L56.3845 44.166V44.207H55.4412L54.6414 42.6455ZM53.9412 41.9336H54.6501C54.8708 41.9336 55.0417 41.8779 55.1628 41.7666C55.2839 41.6533 55.3445 41.498 55.3445 41.3008C55.3445 41.0996 55.2869 40.9414 55.1716 40.8262C55.0583 40.7109 54.8835 40.6533 54.6472 40.6533H53.9412V41.9336ZM59.2673 42.7041V44.207H58.3884V39.9414H60.0525C60.3728 39.9414 60.6541 40 60.8962 40.1172C61.1404 40.2344 61.3279 40.4014 61.4587 40.6182C61.5896 40.833 61.655 41.0781 61.655 41.3535C61.655 41.7715 61.5115 42.1016 61.2244 42.3438C60.9392 42.584 60.5437 42.7041 60.0378 42.7041H59.2673ZM59.2673 41.9922H60.0525C60.2849 41.9922 60.4617 41.9375 60.5828 41.8281C60.7058 41.7188 60.7673 41.5625 60.7673 41.3594C60.7673 41.1504 60.7058 40.9814 60.5828 40.8525C60.4597 40.7236 60.2898 40.6572 60.073 40.6533H59.2673V41.9922ZM64.8279 42.3584H63.1404V43.501H65.1208V44.207H62.2615V39.9414H65.115V40.6533H63.1404V41.6699H64.8279V42.3584ZM68.906 40.6533H67.5994V44.207H66.7205V40.6533H65.4314V39.9414H68.906V40.6533ZM71.9763 42.3584H70.2888V43.501H72.2693V44.207H69.4099V39.9414H72.2634V40.6533H70.2888V41.6699H71.9763V42.3584ZM74.364 42.6455H73.6638V44.207H72.7849V39.9414H74.3699C74.8738 39.9414 75.2625 40.0537 75.5359 40.2783C75.8093 40.5029 75.946 40.8203 75.946 41.2305C75.946 41.5215 75.8826 41.7646 75.7556 41.96C75.6306 42.1533 75.4402 42.3076 75.1843 42.4229L76.1072 44.166V44.207H75.1638L74.364 42.6455ZM73.6638 41.9336H74.3728C74.5935 41.9336 74.7644 41.8779 74.8855 41.7666C75.0066 41.6533 75.0671 41.498 75.0671 41.3008C75.0671 41.0996 75.0095 40.9414 74.8943 40.8262C74.781 40.7109 74.6062 40.6533 74.3699 40.6533H73.6638V41.9336ZM78.8289 43.0879C78.8289 42.9219 78.7703 42.7949 78.6531 42.707C78.5359 42.6172 78.325 42.5234 78.0203 42.4258C77.7156 42.3262 77.4744 42.2285 77.2966 42.1328C76.8123 41.8711 76.5701 41.5186 76.5701 41.0752C76.5701 40.8447 76.6345 40.6396 76.7634 40.46C76.8943 40.2783 77.0808 40.1367 77.323 40.0352C77.5671 39.9336 77.8406 39.8828 78.1433 39.8828C78.448 39.8828 78.7195 39.9385 78.9578 40.0498C79.196 40.1592 79.3806 40.3145 79.5115 40.5156C79.6443 40.7168 79.7107 40.9453 79.7107 41.2012H78.8318C78.8318 41.0059 78.7703 40.8545 78.6472 40.7471C78.5242 40.6377 78.3513 40.583 78.1287 40.583C77.9138 40.583 77.7468 40.6289 77.6277 40.7207C77.5085 40.8105 77.449 40.9297 77.449 41.0781C77.449 41.2168 77.5183 41.333 77.657 41.4268C77.7976 41.5205 78.0037 41.6084 78.2751 41.6904C78.7751 41.8408 79.1394 42.0273 79.3679 42.25C79.5964 42.4727 79.7107 42.75 79.7107 43.082C79.7107 43.4512 79.571 43.7412 79.2917 43.9521C79.0125 44.1611 78.6365 44.2656 78.1638 44.2656C77.8357 44.2656 77.5369 44.2061 77.2673 44.0869C76.9978 43.9658 76.7917 43.8008 76.6492 43.5918C76.5085 43.3828 76.4382 43.1406 76.4382 42.8652H77.3201C77.3201 43.3359 77.6013 43.5713 78.1638 43.5713C78.3728 43.5713 78.5359 43.5293 78.6531 43.4453C78.7703 43.3594 78.8289 43.2402 78.8289 43.0879Z" fill="#2196F3"/>
</svg>
